<?xml version="1.0" encoding="UTF-8"?>
<svg width="100pt" height="100pt" version="1.1" viewBox="0 0 100 100" xmlns="http://www.w3.org/2000/svg">
 <g>
  <path d="m24.02 39.902c2.082 0 3.7695-1.6875 3.7695-3.7695 0-2.0781-1.6875-3.7656-3.7695-3.7656-2.0781 0-3.7656 1.6875-3.7656 3.7656 0 2.082 1.6875 3.7695 3.7656 3.7695z"/>
  <path d="m13.766 51.48c2.082 0 3.7695-1.6875 3.7695-3.7695 0-2.0781-1.6875-3.7656-3.7695-3.7656-2.0781 0-3.7656 1.6875-3.7656 3.7656 0 2.082 1.6875 3.7695 3.7656 3.7695z"/>
  <path d="m78.91 11.43c-4.2617-2.2109-9.5078-0.54297-11.719 3.7188l-9.6445 18.621c-0.050781 0.10156-0.09375 0.20312-0.13281 0.30469-4.7227-0.16016-9.4062 1.9258-12.562 5.6211-3.7188 4.3516-8.293 9.1016-12.203 11.527-5.5742 3.457-10.18 4.7031-13.043 5.1445-1.6719 0.25781-3.0312 1.3359-3.6914 2.7344-0.69141 1.457-0.64062 3.3711 0.70313 4.8516 2.918 3.2188 8.6133 8.4883 19.055 15.129 7.2305 4.6016 13.715 7.1445 17.207 8.3242 2.6719 0.90234 5.5312-0.13281 7.0664-2.4297 1.9414-2.9062 5.3477-8.3867 8.2734-15.055 2.1641-4.9297 4.0273-10.016 5.8125-15.09 1.5078-4.2812 0.82812-8.8008-1.4609-12.367l10.055-19.301c2.2188-4.2656 0.55469-9.5234-3.7148-11.734zm-10.129 27.055 9.2305-17.723c0.89062-1.7148 0.22266-3.8281-1.4922-4.7148-1.7148-0.88672-3.8203-0.21875-4.7109 1.4961l-9.1602 17.688c0.30469 0.12891 0.60937 0.27344 0.91406 0.42578l3.3477 1.6953c0.66016 0.33594 1.2812 0.71484 1.8711 1.1328zm0.34375 14.621c-0.36719 1.0547-0.76172 2.1484-1.1641 3.2656l-21.102-11.074c0.67969-0.75781 1.332-1.5039 1.9492-2.2266 3.1406-3.6758 8.293-4.8594 12.402-2.7773l3.3477 1.6992c4.125 2.0898 6.0742 6.8281 4.5664 11.113zm-33.734 2.5352c2.5664-1.5938 5.2422-3.918 7.7539-6.418l0.035157 0.015625 22.949 12.043c-0.88281 2.2969-1.7891 4.543-2.6719 6.5547-2.7617 6.293-5.9961 11.5-7.8359 14.254-0.26172 0.39062-0.6875 0.51953-1.0781 0.38672-1.5352-0.51562-3.7305-1.332-6.3438-2.5156 1.2148-1.2773 2.9727-3.3711 4.6602-6.2422 0.73047-1.2422 0.30859-2.8164-0.94141-3.5195-1.2461-0.70312-2.8477-0.26562-3.5781 0.97656-1.3555 2.3086-3.0117 4.582-5.043 6.3555-1.5469-0.83594-3.168-1.7773-4.8359-2.8359-1.3516-0.86328-2.6211-1.6992-3.8086-2.5039 0.61719-0.41797 1.2969-0.92578 2.0234-1.5508 1.0938-0.9375 1.2031-2.5586 0.24219-3.6211-0.96094-1.0586-2.625-1.1602-3.7188-0.22266-1.6094 1.3789-2.7344 1.9062-3.1875 2.082-4.1367-3.1094-6.9141-5.6641-8.707-7.5273 3.4766-0.64453 8.3906-2.1797 14.086-5.7109z" fill-rule="evenodd"/>
 </g>
</svg>
