<svg width="20px" height="20px" viewBox="0 0 20 20" version="1.1"
    xmlns="http://www.w3.org/2000/svg"
    xmlns:xlink="http://www.w3.org/1999/xlink">
    <g id="Page-1" stroke="none" stroke-width="1" fill="none" fill-rule="evenodd">
        <g id="Group" fill="#000000" fill-rule="nonzero">
            <path d="M10,0 C15.5228475,0 20,4.47715245 20,10 C20,13.5726558 18.0940108,16.873926 15,18.660254 C11.9059893,20.4465819 8.09401074,20.4465819 5,18.660254 C1.90598923,16.873926 0,13.5726558 0,10 C0,4.47715245 4.47715251,0 10,0 Z M10,2 C5.58172201,2 2,5.58172195 2,10 C2,12.8581246 3.52479138,15.4991408 6,16.9282032 C8.4752086,18.3572655 11.5247914,18.3572655 14,16.9282032 C16.4752086,15.4991408 18,12.8581246 18,10 C18,5.58172195 14.418278,2 10,2 Z M10,4.99999981 C10.5522847,4.99999981 11,5.44771506 11,5.99999981 L11,9.58499981 L13.7071068,12.292893 C14.0675907,12.653377 14.0953203,13.220608 13.7902954,13.6128993 L13.7071068,13.7071066 C13.3165825,14.0976309 12.6834175,14.0976309 12.2928932,13.7071066 L9.29289322,10.7071066 C9.10535684,10.5195702 9,10.2652163 9,9.99999981 L9,5.99999981 C9,5.44771506 9.44771525,4.99999981 10,4.99999981 Z" id="Combined-Shape"></path>
        </g>
    </g>
</svg>
