<?xml version="1.0" encoding="UTF-8"?>
<svg width="20px" height="20px" viewBox="0 0 20 20" version="1.1" xmlns="http://www.w3.org/2000/svg" xmlns:xlink="http://www.w3.org/1999/xlink">
    <title>Artboard Copy 5</title>
    <g id="Artboard-Copy-5" stroke="none" stroke-width="1" fill="none" fill-rule="evenodd">
        <path d="M16.835443,0 C18.5831796,0 20,1.41682041 20,3.16455696 L20,13.0379747 C20,14.7857112 18.5831796,16.2025316 16.835443,16.2025316 L13.923038,16.2025316 L13.9240506,16.3363087 C13.9239898,16.843794 14.1031923,17.3328114 14.426658,17.7187732 L14.5546516,17.858513 L15.1835123,18.4873737 C15.7417091,19.0455705 15.3463714,20 14.556962,20 L5.44303797,20 C4.65362861,20 4.25829095,19.0455705 4.81648766,18.4873737 L5.44544304,17.8584184 C5.84920608,17.4547773 6.07601776,16.9072296 6.07594937,16.3362025 L6.07594937,16.2025316 L3.16455696,16.2025316 C1.47708719,16.2025316 0.0981052319,14.8817383 0.00500953182,13.2175501 L0,13.0379747 L0,3.16455696 L0.00500953182,2.98498159 C0.0981052319,1.32079334 1.47708719,0 3.16455696,0 L16.835443,0 Z M12.1518987,16.2025316 L7.84708861,16.2025316 L7.84810126,16.3360964 C7.848178,16.9767679 7.69157878,17.6012985 7.39954357,18.1584439 L7.36,18.2278481 L12.6389873,18.2278481 L12.6004785,18.158472 C12.3449284,17.6709589 12.1930883,17.1318828 12.1591727,16.575575 L12.1518987,16.3362025 L12.1518987,16.2025316 Z M18.2278481,12.841519 L18.1835012,12.8638938 C17.7745288,13.0567371 17.3175773,13.164557 16.835443,13.164557 L3.16455696,13.164557 C2.68242274,13.164557 2.2254712,13.0567371 1.8164988,12.8638938 L1.7721519,12.841519 L1.7721519,13.0379747 C1.7721519,13.7617432 2.32436868,14.3565346 3.03045906,14.4240057 L3.16455696,14.4303797 L16.835443,14.4303797 C17.6044471,14.4303797 18.2278481,13.8069788 18.2278481,13.0379747 L18.2278481,12.841519 Z M16.835443,1.7721519 L3.16455696,1.7721519 C2.39555288,1.7721519 1.7721519,2.39555288 1.7721519,3.16455696 L1.7721519,10 C1.7721519,10.7690041 2.39555288,11.3924051 3.16455696,11.3924051 L16.835443,11.3924051 C17.6044471,11.3924051 18.2278481,10.7690041 18.2278481,10 L18.2278481,3.16455696 L18.2214741,3.03045906 C18.154003,2.32436868 17.5592116,1.7721519 16.835443,1.7721519 Z" id="Shape" fill="#000000" fill-rule="nonzero"></path>
    </g>
</svg>