<svg width="18px" height="20px" viewBox="0 0 18 20" version="1.1"
    xmlns="http://www.w3.org/2000/svg"
    xmlns:xlink="http://www.w3.org/1999/xlink">
    <title>delete</title>
    <g id="Page-1" stroke="none" stroke-width="1" fill="none" fill-rule="evenodd">
        <g id="delete" transform="translate(1.000000, 1.000000)" fill="#000000" fill-rule="nonzero">
            <path d="M10,-1 C11.1045695,-1 12,-0.1045695 12,1 L12,3 L16,3 C16.5522847,3 17,3.44771525 17,4 C17,4.55228475 16.5522847,5 16,5 L15.931,5 L15.1304763,16.213 C15.0187068,17.7832453 13.7122224,19 12.138,19 L3.862,19 C2.28777764,19 0.981293174,17.7832453 0.869539632,16.2132237 L0.068,5 L0,5 C-0.55228475,5 -1,4.55228475 -1,4 C-1,3.44771525 -0.55228475,3 0,3 L4,3 L4,1 C4,-0.1045695 4.8954305,-1 6,-1 L10,-1 Z M2.074,5 L2.86447632,16.071 C2.90173255,16.5944115 3.33723127,17 3.862,17 L12.138,17 C12.6627687,17 13.0982674,16.5944115 13.1355396,16.0707763 L13.925,5 L2.074,5 Z M6,7 C6.55228475,7 7,7.44771525 7,8 L7,14 C7,14.5522847 6.55228475,15 6,15 C5.44771525,15 5,14.5522847 5,14 L5,8 C5,7.44771525 5.44771525,7 6,7 Z M10,7 C10.5522847,7 11,7.44771525 11,8 L11,14 C11,14.5522847 10.5522847,15 10,15 C9.44771525,15 9,14.5522847 9,14 L9,8 C9,7.44771525 9.44771525,7 10,7 Z M10,1 L6,1 L6,3 L10,3 L10,1 Z" id="Shape"></path>
        </g>
    </g>
</svg>
