<?xml version="1.0" encoding="UTF-8"?>
<svg width="92px" height="68px" viewBox="0 0 92 68" version="1.1" xmlns="http://www.w3.org/2000/svg" xmlns:xlink="http://www.w3.org/1999/xlink">
    <title>download2</title>
    <g id="Page-1" stroke="none" stroke-width="1" fill="none" fill-rule="evenodd">
        <g id="download2" transform="translate(0.000500, 0.000000)" fill="#000000" fill-rule="nonzero">
            <path d="M45.9995,0 C53.1558,0.001 60.3277,2.7354 65.7808,8.1885 C71.2886,13.6965 73.858875,20.9502 73.812,28.1885 C83.9805,29.1175 92,37.5945 92,48.0005 C92,59.0278 83.027,68.0005 72,68.0005 L23,68.0005 C10.332,68.0005 0,57.6685 0,45.0005 C0,33.8365 8.035,24.5862 18.625,22.5315 C19.668,17.2813 22.1289,12.2461 26.1875,8.1875 C31.6445,2.7305 38.8433,0 45.9995,0 Z M45.9993,24 C44.3433,24 42.9995,25.3438 42.9995,27 L42.9995,46.219 L37.0307,40.7815 C35.8666,39.7268 33.8393,39.81275 32.7807,40.969 C31.7221,42.12525 31.6987,44.0393 32.9682,45.219 L43.9682,55.219 C44.47211,55.67994 44.9994,56.00025 45.9994,56.00025 C46.9994,56.00025 47.4369,55.76197 48.0306,55.219 L59.0306,45.219 C60.1829,44.1526 60.4017,42.1252 59.2181,40.969 C58.097,39.8713 56.1322,39.7268 54.9681,40.7815 L48.9993,46.219 L48.9993,27 C48.9993,25.3438 47.6555,24 45.9993,24 Z" id="Combined-Shape"></path>
        </g>
    </g>
</svg>