<svg width="96px" height="92px" viewBox="0 0 96 92" version="1.1"
    xmlns="http://www.w3.org/2000/svg"
    xmlns:xlink="http://www.w3.org/1999/xlink">
    <g id="Page-1" stroke="none" stroke-width="1" fill="none" fill-rule="evenodd">
        <g id="np_download_1563391_000000" transform="translate(0.000000, 0.924846)" fill="#000000" fill-rule="nonzero">
            <path d="M70.8277033,19.0666388 C68.2261033,10.7981033 61.6168033,4.2340693 53.0777033,1.44171848 C44.5386033,-1.35436441 35.1127033,-0.0348398916 27.7657033,4.97789874 C20.4180033,9.99063737 16.0427033,18.0870194 16.0197033,26.7224456 L16.0197033,27.1037288 C9.48060331,28.3746407 4.03570331,32.6846027 1.49970331,38.5908361 C-1.03549669,44.4969739 -0.324496692,51.2253145 3.39030331,56.525805 C7.10910331,61.8263912 13.3473033,65.007451 20.0193033,65 L32.0193033,65 C34.2302033,65 36.0193033,63.2879256 36.0193033,61.172227 C36.0193033,59.0565285 34.2302033,57.3444672 32.0193033,57.3444672 L20.0193033,57.3444672 C16.8357033,57.3668959 13.7732033,56.1819765 11.5076033,54.0437898 C9.23810331,51.9093352 7.94900331,48.9974626 7.92560331,45.9509485 C7.87091531,39.6112212 13.2029033,34.4265205 19.8276033,34.3777166 L20.3197933,34.3777166 C21.4994933,34.3590266 22.6205933,33.8730838 23.4174933,33.0395317 C24.1909333,32.1760465 24.5268933,31.0284267 24.3276533,29.9070844 C23.1948533,24.7784604 24.3081213,19.4295487 27.4135533,15.1118356 C30.5151533,10.7906775 35.3315533,7.87497707 40.7415533,7.0488508 C46.1517533,6.22274367 51.6795533,7.55722516 56.0345533,10.7383328 C60.3861533,13.9193927 63.1868533,18.6705039 63.7806533,23.8809464 C63.9408133,24.9276473 64.5501833,25.8658312 65.4642533,26.4676508 C66.3744133,27.0694799 67.5072533,27.2825426 68.5892533,27.0582646 C69.7181533,26.8302449 70.8665533,26.7181011 72.0189533,26.7218427 C77.7337533,26.7218427 83.0189533,29.6412752 85.8739533,34.3773625 C88.7333533,39.1134498 88.7333533,44.9525061 85.8739533,49.688402 C83.0184533,54.4244892 77.7333533,57.3439217 72.0189533,57.3439217 L64.0189533,57.3439217 C61.8080533,57.3439217 60.0189533,59.055983 60.0189533,61.1716816 C60.0189533,63.2873801 61.8080533,65 64.0189533,65 L72.0189533,65 C80.5931533,64.7975845 88.4019533,60.2296699 92.5069533,53.0223808 C96.6085533,45.8154745 96.3819533,37.0606222 91.9092933,30.0558216 C87.4404933,23.0507339 79.4012933,18.8644087 70.8272933,19.066323 L70.8277033,19.0666388 Z" id="Path"></path>
            <path d="M48.0187033,38.9997463 C45.8078033,38.9997463 44.0187033,40.7888463 44.0187033,42.9997463 L44.0187033,77.3397463 L38.8468033,72.1678463 L38.8468033,72.1717523 C37.2843033,70.6053523 34.7530033,70.6053523 33.1906033,72.1717523 C31.6242033,73.7342523 31.6242033,76.2655523 33.1906033,77.8279523 L45.1906033,89.8279523 C45.9406033,90.5818623 46.9562033,91.0037523 48.0187033,91.0037523 C49.0812033,91.0037523 50.0968033,90.5818723 50.8468033,89.8279523 L62.8468033,77.8279523 C64.4132033,76.2654523 64.4132033,73.7341523 62.8468033,72.1717523 C61.2843033,70.6053523 58.7530033,70.6053523 57.1906033,72.1717523 L52.0187033,77.3397523 L52.0187033,42.9997463 C52.0187033,41.9372523 51.5968233,40.9216523 50.8468033,40.1716523 C50.0967833,39.4216523 49.0812033,38.9997463 48.0187033,38.9997463 L48.0187033,38.9997463 Z" id="Path"></path>
        </g>
    </g>
</svg>
