<svg width="20px" height="20px" viewBox="0 0 20 20" version="1.1"
    xmlns="http://www.w3.org/2000/svg"
    xmlns:xlink="http://www.w3.org/1999/xlink">
    <title>edit</title>
    <g id="Page-1" stroke="none" stroke-width="1" fill="none" fill-rule="evenodd">
        <g id="edit" transform="translate(0.000000, 0.475349)" fill="#000000" fill-rule="nonzero">
            <path d="M8,2.02465077 C8.55228475,2.02465077 9,2.47236602 9,3.02465077 C9,3.57693552 8.55228475,4.02465077 8,4.02465077 L3,4.02465077 C2.44771525,4.02465077 2,4.47236602 2,5.02465077 L2,16.0246508 C2,16.5769355 2.44771525,17.0246508 3,17.0246508 L14,17.0246508 C14.5522847,17.0246508 15,16.5769355 15,16.0246508 L15,11.0246508 C15,10.472366 15.4477153,10.0246508 16,10.0246508 C16.5522847,10.0246508 17,10.472366 17,11.0246508 L17,16.0246508 C17,17.681505 15.6568542,19.0246508 14,19.0246508 L3,19.0246508 C1.34314575,19.0246508 0,17.681505 0,16.0246508 L0,5.02465077 C0,3.36779652 1.34314575,2.02465077 3,2.02465077 L8,2.02465077 Z M13.8667118,0.91593898 C14.6199352,0.136069227 15.7353455,-0.176698812 16.7842338,0.0978475103 C17.8331221,0.372393832 18.6522569,1.19152871 18.9268033,2.24041701 C19.2013496,3.2893053 18.8885815,4.40471557 18.1211068,5.14575756 L9.53510678,13.7317576 C9.3475704,13.9192939 9.09321649,14.0246508 8.828,14.0246508 L6,14.0246508 C5.44771525,14.0246508 5,13.5769355 5,13.0246508 L5,10.1966508 C5,9.93143428 5.10535684,9.67708037 5.29289322,9.48954399 Z M16.2777955,2.03266541 C15.9281661,1.94114997 15.5563627,2.04540598 15.2931068,2.31775756 L7,10.6100248 L7,12.0240248 L8.413,12.0240248 L16.7192882,3.71936257 C16.9503607,3.49618526 17.0584106,3.17761718 17.0152947,2.86402362 L16.9919854,2.74685524 C16.9004699,2.39722581 16.627425,2.12418085 16.2777955,2.03266541 Z" id="Combined-Shape"></path>
        </g>
    </g>
</svg>
