<?xml version="1.0" encoding="UTF-8"?>
<svg width="20px" height="20px" viewBox="0 0 20 20" version="1.1" xmlns="http://www.w3.org/2000/svg" xmlns:xlink="http://www.w3.org/1999/xlink">
    <title>Artboard Copy</title>
    <g id="Artboard-Copy" stroke="none" stroke-width="1" fill="none" fill-rule="evenodd">
        <path d="M9.99994982,20.0000009 C5.4409049,19.9997296 1.45868702,16.9171201 0.315887784,12.5036294 L0.313920435,12.4941765 L0.219086754,12.0914893 C0.102131532,11.541573 0.0316907561,10.9828384 0.00851136388,10.4214468 L3.55271368e-15,10.0000009 C3.55271368e-15,8.25664079 0.447319882,6.5757241 1.28618607,5.09035045 L1.44604756,4.81676117 C3.25398288,1.8319198 6.49533701,-0.00145955899 10.0003718,8.71859633e-07 L9.99898253,0.00101353032 L10.0010079,0.00101353032 L10.3175135,0.00490454043 C13.6997972,0.110711699 16.8008078,1.92236954 18.5539572,4.81676117 L18.7088549,5.08151923 C19.499243,6.48187536 19.9373904,8.0401147 19.9937898,9.63208525 L20.0000127,10.0000009 C20.0000127,10.8510744 19.8932004,11.6899056 19.6845297,12.5020295 L19.6860699,12.4941765 C18.5651261,16.8251724 14.7237932,19.8707099 10.2842237,19.9959855 L10.0000549,20.0000009 L9.99994982,20.0000009 Z M7.21417275,15.2394927 L7.24752336,15.3267026 C7.94843107,17.1100969 8.96659772,18.2278483 10.0000024,18.2278483 L10.1239185,18.222512 C11.1143528,18.1373632 12.07961,17.0387612 12.7524814,15.3267026 L12.784805,15.2405053 L12.4136206,15.2930985 C11.7750586,15.3737652 11.1314312,15.4221497 10.4851619,15.4376299 L10.0000024,15.4430608 C9.17936084,15.4430608 8.36615072,15.391255 7.56404442,15.2892073 L7.21417275,15.2394927 Z M17.1605006,14.0546827 L17.0699894,14.0925218 C16.4719021,14.3307132 15.8626904,14.5381771 15.2447778,14.7142915 L14.7908807,14.8364547 L14.7874593,14.8503162 C14.5392191,15.6988745 14.2257759,16.4733637 13.8563168,17.149458 L13.7610074,17.3184798 L13.9777312,17.2030221 C15.2404319,16.5054127 16.3091719,15.4822205 17.0604904,14.2290156 L17.1605006,14.0546827 Z M2.83948974,14.0556953 L2.93951437,14.2290156 C3.69083283,15.4822205 4.75957284,16.5054127 6.02227356,17.2030221 L6.23695768,17.3174671 L6.14368794,17.149458 C5.77422883,16.4733637 5.46078568,15.6988745 5.21254545,14.8503162 L5.20809705,14.8374674 L5.19470942,14.8339022 C4.41848318,14.6329345 3.65703316,14.3832888 2.91403176,14.086529 L2.83948974,14.0556953 Z M13.6313872,8.85265801 L13.3137463,8.9420251 C12.2397977,9.22380399 11.1265358,9.36871862 10.0000024,9.36710246 C8.85812646,9.36710246 7.73865697,9.21956526 6.66376519,8.93589878 L6.36759058,8.85265801 L6.3527383,9.09264686 C6.34235581,9.29101597 6.33531818,9.49167761 6.33178003,9.69440032 L6.32911676,10.0000012 C6.32911676,11.1259937 6.43731509,12.1931401 6.62798441,13.1629283 L6.66632472,13.34886 L7.06537011,13.4237498 C7.86620283,13.5601335 8.68108006,13.64085 9.5055719,13.6639672 L10.0013853,13.6709313 C10.9803933,13.6724382 11.9541326,13.5906846 12.9124743,13.4282603 L13.332653,13.3498726 L13.3720204,13.1629283 C13.5453561,12.2813027 13.650534,11.3192157 13.6682247,10.3056021 L13.670888,10.0000012 C13.670888,9.69291239 13.6628402,9.39020052 13.6472665,9.09264686 L13.6313872,8.85265801 Z M2.37366702,6.90329116 C1.97887564,7.87687631 1.7721481,8.92311196 1.7721481,10.0007855 C1.77153624,10.6956826 1.85878954,11.3878651 2.03183575,12.0608632 L1.9463253,11.690126 L2.03097024,11.7359037 C2.89208552,12.182265 3.78745888,12.5545865 4.70943541,12.8495295 L4.77467938,12.86886 L4.74666221,12.6840182 C4.63623348,11.9228178 4.57223834,11.1266678 4.55938051,10.3080231 L4.55696508,10.0000012 C4.55696508,9.48495511 4.57717027,8.97808786 4.61643227,8.48244021 L4.63898319,8.21670872 L4.57998785,8.19044022 C3.90958723,7.88370555 3.26556819,7.51984909 2.6545,7.10225098 L2.37366702,6.90329116 Z M17.6263234,6.90430382 L17.3381425,7.10788008 C16.7229308,7.52759028 16.0748147,7.89220024 15.40151,8.19884579 L15.3599945,8.21670872 L15.3835725,8.48244021 C15.4149821,8.87895833 15.4341953,9.28265699 15.4406243,9.69197935 L15.4430397,10.0000012 C15.4430397,10.9270843 15.3775749,11.8276677 15.2533426,12.6840182 L15.2242983,12.86886 L15.2703888,12.8556471 C16.196034,12.5605852 17.0978408,12.1870287 17.9656804,11.7375886 L18.0526524,11.690126 L18.0611073,11.6572984 C18.1439576,11.2510853 18.1963315,10.8376 18.2173407,10.4189238 L18.2278725,9.99859435 C18.2295464,8.93779494 18.0250811,7.89024295 17.6294435,6.913132 L17.6263234,6.90430382 Z M9.8760863,1.77749042 C8.51423914,1.89457011 7.19999236,3.92770965 6.62798441,6.83707415 L6.58429941,7.06632912 L6.87586224,7.15606858 C7.76657043,7.41244065 8.69503567,7.55981171 9.64434028,7.58939599 L10.0012733,7.59496324 C11.0591514,7.59646905 12.1033202,7.44848116 13.104965,7.16170852 L13.4146783,7.06734177 L13.3720204,6.83707415 C12.8000124,3.92770965 11.4857656,1.89457011 10.1239185,1.77749042 L10.0000024,1.77215414 L9.8760863,1.77749042 Z M6.23695768,2.68253219 L6.09753598,2.7548637 C5.00253235,3.3444018 4.04300548,4.1809609 3.30460148,5.21450523 L3.22429982,5.32962047 L3.45982353,5.50313331 C3.8372692,5.77289042 4.22996958,6.0184174 4.63580996,6.23861601 L4.90936291,6.38177224 L4.94654253,6.20195264 C5.21899372,4.9364625 5.62644519,3.79707656 6.14368794,2.85054443 L6.23695768,2.68253219 Z M13.76202,2.68253219 L13.8563168,2.85054443 C14.3735596,3.79707656 14.781011,4.9364625 15.0534622,6.20195264 L15.0896148,6.38075958 L15.3514051,6.24574777 C15.759434,6.02522562 16.1546361,5.77893625 16.5344817,5.50782081 L16.7746779,5.32962047 L16.6954033,5.21450523 C15.9569993,4.1809609 14.9974724,3.3444018 13.9024688,2.7548637 L13.76202,2.68253219 Z" id="Shape" fill="#000000" fill-rule="nonzero"></path>
    </g>
</svg>