<?xml version="1.0" encoding="UTF-8"?>
<svg width="20px" height="20px" viewBox="0 0 20 20" version="1.1" xmlns="http://www.w3.org/2000/svg" xmlns:xlink="http://www.w3.org/1999/xlink">
    <title>Shape</title>
    <g id="Page-1" stroke="none" stroke-width="1" fill="none" fill-rule="evenodd">
        <g id="language" transform="translate(1, 1)" fill="#000000" fill-rule="nonzero">
            <path d="M-0.442048051,11.4410013 L-0.443,11.433 L-0.536382714,11.0393432 C-0.650416301,10.5031624 -0.71909741,9.95837605 -0.741697743,9.41096169 L-0.749996468,9.00000157 C-0.749996468,7.30010479 -0.313897527,5.6613536 0.50395453,4.21318951 L0.664744637,3.93830932 C2.42841965,1.03283284 5.58606185,-0.751422607 9.00031979,-0.750002547 L9.31899458,-0.744921395 C12.6099437,-0.638811699 15.6267094,1.12362898 17.3352696,3.93830932 L17.4961482,4.21334637 C18.32069,5.67417515 18.752681,7.32371914 18.7500668,9.00000157 C18.7500668,9.82990519 18.6458719,10.6478013 18.4424116,11.4396472 L18.444,11.433 C17.3515342,15.6526207 13.6091113,18.6212543 9.28299585,18.7459198 L9.00005159,18.7499975 C4.5548702,18.7497379 0.672187125,15.7441777 -0.442048051,11.4410013 Z M11.941,14.02 L11.8365461,14.0376463 C10.9008893,14.1800321 9.95270344,14.2515108 9.0000071,14.2500236 C8.03394938,14.2500236 7.07841367,14.176847 6.13961521,14.0331436 L6.058,14.02 C6.74616492,15.9226898 7.78691081,17.1561029 8.87434439,17.2448668 L9,17.25 L9.12566982,17.2448668 C10.2131034,17.1561029 11.2538493,15.9226898 11.9388428,14.0273291 L11.941,14.02 Z M1.651,12.755 L1.76756849,12.9740939 C2.62220702,14.5284943 3.95276259,15.7568756 5.54179127,16.4909158 L5.613,16.522 L5.57248771,16.4599416 C5.10271216,15.7161725 4.70966262,14.8196777 4.41027889,13.8135539 L4.37,13.673 L4.28617614,13.6524861 C3.52474296,13.4553515 2.77781027,13.2104667 2.04897486,12.9193649 L1.651,12.755 Z M16.348,12.754 L15.9353689,12.9252364 C15.202012,13.2172985 14.4516018,13.4622642 13.6887787,13.6589421 L13.629,13.672 L13.5897353,13.8135539 C13.2903516,14.8196777 12.897302,15.7161725 12.4275265,16.4599416 L12.386,16.522 L12.4582229,16.4909158 C14.0472516,15.7568756 15.3778072,14.5284943 16.2324457,12.9740939 L16.348,12.754 Z M5.299,7.702 L5.29017925,7.82138448 C5.26377295,8.20576662 5.2500071,8.59922487 5.2500071,9.00000157 C5.2500071,10.2023317 5.37389977,11.3387958 5.59129915,12.3619367 L5.603,12.416 C6.55364334,12.6054187 7.52398228,12.7155225 8.50804058,12.7431179 L9.00117766,12.7500454 C10.1373483,12.7517978 11.2663855,12.6408115 12.3722894,12.4211901 L12.396,12.416 L12.408715,12.3619367 C12.6079978,11.4240575 12.728709,10.3909554 12.7474436,9.29918442 L12.7500071,9.00000157 C12.7500071,8.59922487 12.7362412,8.20576662 12.7098349,7.82138448 L12.7,7.703 L12.589179,7.73754802 C11.5478244,8.04271803 10.4651837,8.21510184 9.36671474,8.24524673 L9.0000071,8.25001395 C7.7592384,8.25001395 6.54556739,8.07190374 5.38870252,7.73097514 L5.299,7.702 Z M1.416,5.748 L1.38347946,5.82285706 C0.96807747,6.81741248 0.75,7.89258983 0.75,9.00066544 C0.74938651,9.69741369 0.836872258,10.3914402 1.01037952,11.0662314 L0.938,10.753 L1.07307207,10.8251877 C1.92965365,11.2691983 2.82031963,11.6395616 3.73743312,11.9329547 L3.996,12.011 L3.98533704,11.949479 C3.84708001,11.1099594 3.76706838,10.2229147 3.75244863,9.30652626 L3.75,9.00000157 C3.75,8.38487834 3.77942307,7.78189894 3.83613753,7.19645044 L3.84,7.161 L3.6997234,7.09937991 C2.93488129,6.74943309 2.20515278,6.32345174 1.52072786,5.82668098 L1.416,5.748 Z M16.584,5.749 L16.4740618,5.83108124 C15.7849501,6.33077374 15.0503293,6.75776317 14.2821772,7.10760197 L14.159,7.161 L14.1638767,7.19645044 C14.2111387,7.68432419 14.2394435,8.18437218 14.2475656,8.69347688 L14.2500071,9.00000157 C14.2500071,10.025207 14.1682961,11.0166795 14.0146772,11.949479 L14.003,12.011 L14.2424782,11.9390478 C15.1632566,11.6455372 16.060322,11.2739447 16.9235988,10.8268676 L17.063,10.751 L17.0686971,10.7293912 C17.1647657,10.2777639 17.2231704,9.81701902 17.2426899,9.35010597 L17.2500298,8.99881075 C17.2517517,7.90779856 17.0360265,6.83076034 16.6190478,5.82957389 L16.584,5.749 Z M8.87434439,0.755136303 C7.41049149,0.874626284 6.03124277,3.06836943 5.49053236,6.15886081 L5.485,6.189 L5.54848653,6.21062844 C6.53822428,6.5291142 7.57832552,6.71122821 8.64468881,6.7444664 L9.00108286,6.75002626 C10.1749074,6.75169839 11.33183,6.56905822 12.4323777,6.21677998 L12.514,6.188 L12.5094818,6.15886081 C11.9687714,3.06836943 10.5895227,0.874626284 9.12566982,0.755136303 L9.0000071,0.750001572 L8.87434439,0.755136303 Z M5.613,1.477 L5.45144451,1.55066521 C4.19345765,2.14967332 3.09315532,3.06434094 2.27010148,4.22481701 L2.14,4.415 L2.18915522,4.45452956 C2.74290433,4.87663626 3.33212933,5.24492562 3.94968908,5.55569272 L4.064,5.611 L4.08605891,5.49808479 C4.39544182,3.95391931 4.90697234,2.59373445 5.57248771,1.54006159 L5.613,1.477 Z M12.386,1.477 L12.4275265,1.54006159 C13.0930419,2.59373445 13.6045724,3.95391931 13.9139553,5.49808479 L13.935,5.611 L14.0359839,5.56296979 C14.6565667,5.25202287 15.2497494,4.88264968 15.8070058,4.45802235 L15.86,4.416 L15.7299127,4.22481701 C14.9068589,3.06434094 13.8065565,2.14967332 12.5485697,1.55066521 L12.386,1.477 Z" id="Shape"></path>
        </g>
    </g>
</svg>