
<svg width="18px" height="19.5px" viewBox="0 0 18 19.5" version="1.1" xmlns="http://www.w3.org/2000/svg" xmlns:xlink="http://www.w3.org/1999/xlink">
    <g id="Page-1" stroke="none" stroke-width="1" fill="none" fill-rule="evenodd">
        <g id="signout" transform="translate(0.75, 0.75)" fill="#000000" fill-rule="nonzero">
            <path d="M8.25,-0.75 C9.90685425,-0.75 11.25,0.593145751 11.25,2.25 L11.25,6 C11.25,6.41421356 10.9142136,6.75 10.5,6.75 C10.0857864,6.75 9.75,6.41421356 9.75,6 L9.75,2.25 C9.75,1.42157288 9.07842712,0.75 8.25,0.75 L2.25,0.75 C1.42157288,0.75 0.75,1.42157288 0.75,2.25 L0.75,15.75 C0.75,16.5784271 1.42157288,17.25 2.25,17.25 L8.25,17.25 C9.07842712,17.25 9.75,16.5784271 9.75,15.75 L9.75,12 C9.75,11.5857864 10.0857864,11.25 10.5,11.25 C10.9142136,11.25 11.25,11.5857864 11.25,12 L11.25,15.75 C11.25,17.4068542 9.90685425,18.75 8.25,18.75 L2.25,18.75 C0.593145751,18.75 -0.75,17.4068542 -0.75,15.75 L-0.75,2.25 C-0.75,0.593145751 0.593145751,-0.75 2.25,-0.75 L8.25,-0.75 Z M6.21966991,5.46966991 C6.51256313,5.1767767 6.98743687,5.1767767 7.28033009,5.46966991 C7.5732233,5.76256313 7.5732233,6.23743687 7.28033009,6.53033009 L5.56,8.25 L16.5,8.25 C16.8796958,8.25 17.193491,8.53215388 17.2431534,8.89822944 L17.25,9 C17.25,9.41421356 16.9142136,9.75 16.5,9.75 L5.561,9.75 L7.28033009,11.4696699 C7.54659665,11.7359365 7.5708027,12.1526002 7.35294824,12.4462117 L7.28033009,12.5303301 C6.98743687,12.8232233 6.51256313,12.8232233 6.21966991,12.5303301 L3.21966991,9.53033009 L3.15627192,9.45830264 L3.151,9.451 L3.13,9.419 L3.10239699,9.37853936 L3.097,9.368 L3.08895724,9.35471009 L3.075,9.324 L3.05893872,9.29193385 L3.05,9.269 L3.04538635,9.25746609 L3.039,9.238 L3.02679072,9.19937971 L3.02,9.171 L3.01633908,9.15612035 L3.013,9.136 L3.00684662,9.10177056 L3.005,9.077 L3.00181545,9.05231357 L3.001,9.017 L3,9 L3.001,8.983 L3.00181545,8.94768643 L3.005,8.922 L3.00684662,8.89822944 L3.013,8.863 L3.01633908,8.84387965 L3.02,8.828 L3.02679072,8.80062029 L3.039,8.761 L3.04538635,8.74253391 L3.05,8.73 L3.05893872,8.70806615 L3.075,8.675 L3.08895724,8.64528991 L3.097,8.631 L3.10239699,8.62146064 L3.13,8.58 L3.14705176,8.55378835 C3.17586705,8.51634926 3.19704936,8.49229046 3.21966991,8.46966991 L6.21966991,5.46966991 Z" id="Shape"></path>
        </g>
    </g>
</svg>
