<?xml version="1.0" encoding="UTF-8"?>
<svg width="20px" height="20px" viewBox="0 0 20 20" version="1.1" xmlns="http://www.w3.org/2000/svg" xmlns:xlink="http://www.w3.org/1999/xlink">
    <title>Artboard Copy 2</title>
    <g id="Artboard-Copy-2" stroke="none" stroke-width="1" fill="none" fill-rule="evenodd">
        <path d="M9.98487953,0 C11.8560257,0 13.4043588,1.42168258 13.4043588,3.21809065 L13.4043588,6.98581807 C13.4043588,7.51460542 12.975692,7.94327227 12.4469046,7.94327227 C11.9181173,7.94327227 11.4894504,7.51460542 11.4894504,6.98581807 L11.4894504,3.21809065 C11.4894504,2.51746865 10.8332111,1.9149084 9.98487953,1.9149084 L3.41947929,1.9149084 C2.57114768,1.9149084 1.9149084,2.51746865 1.9149084,3.21809065 L1.9149084,16.7819093 C1.9149084,17.4825314 2.57114768,18.0850916 3.41947929,18.0850916 L9.98487953,18.0850916 C10.8332111,18.0850916 11.4894504,17.4825314 11.4894504,16.7819093 L11.4894504,13.0141819 C11.4894504,12.4853946 11.9181173,12.0567277 12.4469046,12.0567277 C12.975692,12.0567277 13.4043588,12.4853946 13.4043588,13.0141819 L13.4043588,16.7819093 C13.4043588,18.5783174 11.8560257,20 9.98487953,20 L3.41947929,20 C1.54833308,20 0,18.5783174 0,16.7819093 L0,3.21809065 C0,1.42168258 1.54833308,0 3.41947929,0 L9.98487953,0 Z M7.67529927,6.11524086 C8.05400191,5.74618751 8.66017791,5.75400981 9.02923126,6.13271245 C9.39828461,6.51141509 9.39046231,7.11759109 9.01175967,7.48664444 L7.41452534,9.04165036 L19.0123049,9.0425458 C19.5004163,9.0425458 19.9032179,9.40780039 19.9622991,9.87989898 L19.9697591,10 C19.9697591,10.5287874 19.5410922,10.9574542 19.0123049,10.9574542 L7.41452534,10.9565588 L9.01175967,12.5133556 C9.35890376,12.8516545 9.39440534,13.3892023 9.11364649,13.7681417 L9.02923126,13.8672876 C8.66017791,14.2459902 8.05400191,14.2538125 7.67529927,13.8847591 L4.39259915,10.6857018 L4.38349889,10.676435 L4.37512756,10.6682302 L4.36270846,10.6534561 L4.34501477,10.6358834 L4.32331606,10.6085926 L4.30565363,10.5887673 L4.29486599,10.5735771 L4.28611212,10.5615405 L4.27491902,10.5470142 L4.25000242,10.5068288 L4.23418228,10.4835658 L4.22921199,10.4729076 L4.22197943,10.4620737 L4.18763112,10.3908401 L4.17820591,10.3717106 L4.17559455,10.3645785 L4.16782272,10.3460503 C4.14007661,10.2744993 4.12068195,10.1987841 4.11083508,10.120101 L4.10994055,10.1139991 L4.10665785,10.052722 L4.10345486,10.0123543 L4.10446938,10.0001988 L4.10345486,9.98764572 L4.10665785,9.94548713 L4.10966658,9.89001588 L4.10994055,9.88530429 L4.11212902,9.86998503 L4.11978865,9.83059263 L4.13261669,9.76424979 L4.13620215,9.75180782 L4.14605025,9.72007505 L4.16782272,9.6539497 L4.17559455,9.63472485 L4.18872535,9.60627478 L4.21555592,9.54989595 L4.21936389,9.54280925 L4.22702352,9.52967845 L4.23418228,9.5164342 L4.25219089,9.48700335 L4.27491902,9.45298582 L4.28611212,9.43557438 L4.29486599,9.42463204 L4.30565363,9.41123274 L4.32112759,9.39180504 L4.34501477,9.36411655 L4.36817963,9.33928184 L4.38349889,9.32286834 L4.39259915,9.31429821 L7.67529927,6.11524086 Z" id="Shape" fill="#000000" fill-rule="nonzero"></path>
    </g>
</svg>