<svg viewBox="0 0 110 31"
    xmlns="http://www.w3.org/2000/svg">
    <g fill-rule="nonzero" fill="none">
        <path d="M79.4 19.053c-.3-.3-.7-.6-1.2-.8-.5-.2-1-.3-1.4-.3-.5 0-1 .1-1.5.3-.5.2-.9.5-1.2.8-.4.3-.6.7-.8 1.2-.2.5-.3 1-.3 1.5s.1 1 .3 1.5c.2.4.5.8.8 1.2.4.3.8.6 1.2.8.5.2 1 .3 1.5.3s1-.1 1.4-.3c.5-.2.9-.5 1.2-.8.3-.3.6-.7.8-1.2.2-.5.3-1 .3-1.5s-.1-1-.3-1.5c-.2-.5-.4-.9-.8-1.2Zm0-12.6c-.3-.3-.7-.6-1.2-.8-.5-.2-1-.3-1.4-.3-.5 0-1 .1-1.5.3-.5.2-.9.5-1.2.8-.4.3-.6.7-.8 1.2-.2.5-.3 1-.3 1.5s.1 1 .3 1.5c.2.4.5.8.8 1.2.4.3.8.6 1.2.8.5.2 1 .3 1.5.3s1-.1 1.4-.3c.5-.2.9-.5 1.2-.8.3-.3.6-.7.8-1.2.2-.5.3-1 .3-1.5s-.1-1-.3-1.4c-.2-.6-.4-1-.8-1.3Z" fill="#E3BD6F"/>
        <path d="M94.683 8.76v3.445h2.535c.66 0 1.202-.152 1.624-.455.423-.304.634-.773.634-1.406 0-.528-.225-.924-.674-1.188-.448-.264-1.043-.396-1.782-.396h-2.337Zm0 9.505v3.802h2.812c.74 0 1.34-.165 1.803-.495.462-.33.693-.812.693-1.446 0-.37-.1-.673-.297-.91a2.25 2.25 0 0 0-.733-.575c-.29-.145-.6-.244-.93-.297-.33-.053-.641-.079-.932-.079h-2.416Zm9.545-3.367a7.54 7.54 0 0 1 1.941.773 6.968 6.968 0 0 1 1.703 1.346 6.157 6.157 0 0 1 1.188 1.882c.29.713.436 1.505.436 2.376 0 1.531-.31 2.819-.93 3.862a7.518 7.518 0 0 1-2.456 2.534c-1.017.647-2.179 1.11-3.486 1.387a19.32 19.32 0 0 1-4.02.415H85.891V1.433h11.525c1.136 0 2.344.085 3.624.257 1.28.172 2.462.515 3.545 1.03a6.954 6.954 0 0 1 2.693 2.257c.713.99 1.07 2.29 1.07 3.901 0 1.505-.377 2.746-1.13 3.723-.752.977-1.749 1.703-2.99 2.179v.118ZM51.74.493c2.24 0 4.32.347 6.24 1.04 1.92.693 3.587 1.68 5 2.96 1.413 1.28 2.52 2.833 3.32 4.66.8 1.827 1.2 3.873 1.2 6.14 0 2.267-.4 4.333-1.2 6.2-.8 1.867-1.907 3.46-3.32 4.78-1.413 1.32-3.08 2.34-5 3.06-1.92.72-4 1.08-6.24 1.08s-4.32-.36-6.24-1.08c-1.92-.72-3.58-1.74-4.98-3.06a13.904 13.904 0 0 1-2.848-3.816l.001 7.156H16.847l-7.84-13.52h-.16l.4 13.52H.207V1.293h9.48l7.826 13.909V1.293h19.48v7.92l-10.426-.001v2.441h9.786l-.002.248c.2-.965.49-1.881.869-2.748.8-1.827 1.9-3.38 3.3-4.66 1.4-1.28 3.06-2.267 4.98-2.96 1.92-.693 4-1.04 6.24-1.04ZM36.351 18.701l.002.352h-9.786v2.64l10.741.002-.088-.202c-.38-.886-.67-1.816-.869-2.792ZM51.74 9.213c-.8 0-1.547.147-2.24.44-.693.293-1.287.7-1.78 1.22-.493.52-.88 1.16-1.16 1.92-.28.76-.42 1.593-.42 2.5 0 .933.14 1.787.42 2.56.28.773.667 1.44 1.16 2 .493.56 1.087.993 1.78 1.3.693.307 1.44.46 2.24.46.8 0 1.54-.153 2.22-.46a5.336 5.336 0 0 0 1.78-1.3c.507-.56.9-1.227 1.18-2 .28-.773.42-1.627.42-2.56 0-.907-.14-1.74-.42-2.5-.28-.76-.673-1.4-1.18-1.92a5.5 5.5 0 0 0-1.78-1.22 5.545 5.545 0 0 0-2.22-.44Z" fill="#FFF"/>
    </g>
</svg>
