<?xml version="1.0" encoding="UTF-8"?>
<svg width="20px" height="20px" viewBox="0 0 20 20" version="1.1" xmlns="http://www.w3.org/2000/svg" xmlns:xlink="http://www.w3.org/1999/xlink">
    <title>Artboard Copy 4</title>
    <g id="Artboard-Copy-4" stroke="none" stroke-width="1" fill="none" fill-rule="evenodd">
        <path d="M6.37530016,0.0682308493 C7.07901057,-0.225334742 7.78518704,0.480930655 7.49153285,1.18460409 C7.05518621,2.2302065 6.82777017,3.35584862 6.82777017,4.51559498 C6.82777017,9.29674187 10.7032605,13.1722322 15.4855648,13.1722329 C16.628647,13.1737831 17.7606364,12.9481093 18.8157348,12.5083291 C19.5193711,12.2150434 20.2252693,12.9211543 19.9317715,13.6247022 C18.3210146,17.4858712 14.547185,20.0003602 10.3635797,20 C4.6397145,20 0,15.3602878 0,9.63649562 C-0.000357876646,5.45281738 2.51413116,1.67898771 6.37530016,0.0682308493 Z M5.29542347,2.61552408 L5.10797802,2.7549784 C2.9970027,4.36834315 1.70670823,6.8972007 1.70694254,9.63642261 C1.70694254,14.4175695 5.58243284,18.2930598 10.3636527,18.2930598 C13.1028174,18.2932941 15.6316626,17.0029996 17.2450247,14.8920243 L17.3835029,14.7026281 L17.1152305,14.7517565 C16.7115396,14.815771 16.3038779,14.8558541 15.8944045,14.8715816 L15.4844074,14.8791747 C9.76054213,14.8791747 5.12082763,10.2394602 5.12082763,4.51559498 C5.12082763,3.96103262 5.16443395,3.41245682 5.25022648,2.8736174 L5.29542347,2.61552408 Z" id="Path" fill="#000000" fill-rule="nonzero"></path>
    </g>
</svg>