<?xml version="1.0" encoding="UTF-8"?>
<svg width="21px" height="21px" viewBox="0 0 21 21" version="1.1" xmlns="http://www.w3.org/2000/svg" xmlns:xlink="http://www.w3.org/1999/xlink">
    <title>moon</title>
    <g id="Page-1" stroke="none" stroke-width="1" fill="none" fill-rule="evenodd">
        <g id="moon" transform="translate(0.517492, 0.797197)" fill="#000000" fill-rule="nonzero">
            <path d="M19.6225075,10.7028029 C19.3279972,10.4593688 18.9205111,10.4050374 18.5725075,10.5628029 C17.5150868,11.0466898 16.3653818,11.2957357 15.2025075,11.2928029 C10.7247417,11.2873929 7.08997522,7.67048771 7.06250751,3.19280289 C7.0670675,2.51863558 7.15097832,1.84734904 7.31250751,1.19280289 C7.38230257,0.837563836 7.25464561,0.472342767 6.97874911,0.23793446 C6.70285261,0.00352615328 6.321807,-0.0634587191 5.98250751,0.0628028887 C1.65921559,2.00677993 -0.740367433,6.68660325 0.204344464,11.3317533 C1.14905636,15.9769034 5.18594273,19.3477035 9.92511153,19.4485938 C14.6642803,19.5494841 18.8409636,16.3535395 19.9825075,11.7528029 C20.0856032,11.3622168 19.9435731,10.9479622 19.6225075,10.7028029 L19.6225075,10.7028029 Z M10.1225075,17.3928029 C6.68380114,17.3685394 3.63129713,15.1859763 2.4961901,11.9399291 C1.36108307,8.69388192 2.38827533,5.08469383 5.06250751,2.92280289 L5.06250751,3.19280289 C5.06801996,8.79068533 9.60462507,13.3272904 15.2025075,13.3328029 C15.9083918,13.3353922 16.6124859,13.26163 17.3025075,13.1128029 C15.8961,15.7734559 13.1319996,17.4365358 10.1225075,17.4328092 L10.1225075,17.3928029 Z" id="Shape"></path>
        </g>
    </g>
</svg>