<svg width="20px" height="20px" viewBox="0 0 956 1080" version="1.1"
    xmlns="http://www.w3.org/2000/svg"
    xmlns:xlink="http://www.w3.org/1999/xlink">
    <title>play</title>
    <g id="Page-1" stroke="none" stroke-width="1" fill="none" fill-rule="evenodd">
        <g id="play" transform="translate(0.319971, 0.062482)" fill="#000000" fill-rule="nonzero">
            <path d="M917.280029,473.577518 L114.840029,10.2575177 C99.2460288,1.2536177 80.9770288,-1.9654823 63.2460288,1.1677177 C45.5160288,4.2966177 29.4530288,13.5777177 17.8870288,27.3787177 C6.32102883,41.1757177 -0.0149711694,58.6127177 -7.10542736e-14,76.6167177 L-7.10542736e-14,1003.25672 C-0.0155961694,1021.26072 6.32032883,1038.69772 17.8870288,1052.49472 C29.4530288,1066.29572 45.5160288,1075.57672 63.2460288,1078.70572 C80.9760288,1081.83852 99.2460288,1078.61978 114.840029,1069.61592 L917.280029,606.295918 C932.905029,597.307618 944.858029,583.092918 951.030029,566.158918 C957.205829,549.220918 957.205829,530.650918 951.030029,513.713918 C944.858129,496.779918 932.905029,482.565918 917.280029,473.576918 L917.280029,473.577518 Z" id="Path"></path>
        </g>
    </g>
</svg>
