<?xml version="1.0" encoding="UTF-8"?>
<svg width="81px" height="81px" viewBox="0 0 81 81" version="1.1" xmlns="http://www.w3.org/2000/svg" xmlns:xlink="http://www.w3.org/1999/xlink">
    <title>np_save_4146494_000000</title>
    <g id="Page-1" stroke="none" stroke-width="1" fill="none" fill-rule="evenodd">
        <g id="np_save_4146494_000000" transform="translate(40.461500, 40.460800) scale(-1, 1) translate(-40.461500, -40.460800) " fill="#000000" fill-rule="nonzero">
            <path d="M19.5358,38.0195 L61.3908,38.0195 C64.2541,38.0195 66.551,40.2265 66.551,42.9726 L66.551,63.3206 C66.551,66.0628 64.2541,68.2737 61.3908,68.2737 L19.5358,68.277606 C16.6686,68.277606 14.3678,66.066706 14.3678,63.324506 L14.3678,42.976506 C14.3678,40.226506 16.6725,38.0195 19.5358,38.0195 L19.5358,38.0195 Z M53.2078,9.0625 L64.6608,9.0625 C65.7155,9.0625 66.5514,9.80469 66.5514,10.7266 L66.5514,26.3516 C66.5514,27.27348 65.71546,28.0078 64.6608,28.0078 L53.2078,28.0078 C52.1609,28.0078 51.3094,27.27342 51.3094,26.3516 L51.3094,10.7266 C51.3094,9.80472 52.16096,9.0625 53.2078,9.0625 L53.2078,9.0625 Z M29.6058,0 C24.8558,0 23.5472,0.28906 19.9925,3.8984 L3.6875,20.4764 C0.6523,23.5623 0,24.6483 0,29.2616 L0,68.2656 C0,75.2773 5.4688,80.9216 12.262,80.9216 L68.653,80.9216 C75.446,80.9216 80.923,75.2732 80.923,68.2656 L80.923,12.6566 C80.923,5.6488 75.4503,0 68.653,0 L29.6058,0 Z" id="Shape"></path>
        </g>
    </g>
</svg>