<svg width="69px" height="69px" viewBox="0 0 69 69" version="1.1"
    xmlns="http://www.w3.org/2000/svg"
    xmlns:xlink="http://www.w3.org/1999/xlink">
    <g id="Page-1" stroke="none" stroke-width="1" fill="none" fill-rule="evenodd">
        <g id="np_save_4035705_000000" fill="#000000" fill-rule="nonzero">
            <path d="M66.72182,15.6248 L51.56272,1.8438 C50.27792,0.6719 48.53772,0.0079 46.7159,0 L6.875,0 C3.07659,0 0,2.7969 0,6.25 L0,62.5 C0,64.1562 0.726176,65.7461 2.0152,66.918 C3.304224,68.0899 5.05307,68.75 6.875,68.75 L61.875,68.75 C63.69682,68.75 65.44571,68.08984 66.7348,66.918 C68.02389,65.74616 68.75,64.1563 68.75,62.5 L68.75,20.031 C68.7414068,18.3748 68.010932,16.7927 66.72182,15.6248 L66.72182,15.6248 Z M24.06272,6.2498 L44.68772,6.2498 L44.68772,18.7498 L24.06272,18.7498 L24.06272,6.2498 Z M20.62522,62.4998 L20.62522,40.6248 L48.12522,40.6248 L48.12522,62.4998 L20.62522,62.4998 Z M55.00022,62.5 L55.00022,40.6248 C55.00022,38.9686 54.274044,37.3787 52.98502,36.2068 C51.695996,35.0349 49.94715,34.3748 48.12522,34.3748 L20.62522,34.3748 C16.82681,34.3748 13.75022,37.1717 13.75022,40.6248 L13.75022,62.5 L6.87522,62.5 L6.87522,6.2498 L17.18772,6.2498 L17.18772,18.7498 C17.18772,20.406 17.913896,21.9959 19.20292,23.1678 C20.491944,24.3397 22.24079,24.9998 24.06272,24.9998 L44.68772,24.9998 C46.50954,24.9998 48.25843,24.33964 49.54752,23.1678 C50.83661,21.99596 51.56272,20.4061 51.56272,18.7498 L51.56272,10.656 L61.87522,20.031 L61.87522,62.5 L55.00022,62.5 Z" id="Shape"></path>
        </g>
    </g>
</svg>
