<?xml version="1.0" encoding="UTF-8"?>
<svg width="20px" height="20px" viewBox="0 0 20 20" version="1.1" xmlns="http://www.w3.org/2000/svg" xmlns:xlink="http://www.w3.org/1999/xlink">
    <title>Artboard Copy 3</title>
    <g id="Artboard-Copy-3" stroke="none" stroke-width="1" fill="none" fill-rule="evenodd">
        <path d="M10,15.9493671 C10.4893662,15.9493671 10.8860759,16.3460768 10.8860759,16.835443 L10.8860759,19.1139241 C10.8860759,19.6032903 10.4893662,20 10,20 C9.51063377,20 9.11392405,19.6032903 9.11392405,19.1139241 L9.11392405,16.835443 C9.11392405,16.3460768 9.51063377,15.9493671 10,15.9493671 Z M14.2068674,14.2068674 C14.5529016,13.8608332 15.1139339,13.8608332 15.459968,14.2068674 L17.0711073,15.8180066 C17.4171415,16.1640408 17.4171415,16.7250731 17.0711073,17.0711073 C16.7250731,17.4171415 16.1640408,17.4171415 15.8180066,17.0711073 L14.2068674,15.459968 C13.8608332,15.1139339 13.8608332,14.5529016 14.2068674,14.2068674 Z M4.54003197,14.2068674 C4.88606615,13.8608332 5.44709841,13.8608332 5.79313259,14.2068674 C6.13916677,14.5529016 6.13916677,15.1139339 5.79313259,15.459968 L4.18199335,17.0711073 C3.83595917,17.4171415 3.27492691,17.4171415 2.92889273,17.0711073 C2.58285854,16.7250731 2.58285854,16.1640408 2.92889273,15.8180066 L4.54003197,14.2068674 Z M10,5.3164557 C12.5866501,5.3164557 14.6835443,7.41334991 14.6835443,10 C14.6835443,12.5866501 12.5866501,14.6835443 10,14.6835443 C7.41334991,14.6835443 5.3164557,12.5866501 5.3164557,10 C5.3164557,7.41334991 7.41334991,5.3164557 10,5.3164557 Z M10,7.08860759 C8.39208237,7.08860759 7.08860759,8.39208237 7.08860759,10 C7.08860759,11.6079176 8.39208237,12.9113924 10,12.9113924 C11.6079176,12.9113924 12.9113924,11.6079176 12.9113924,10 C12.9113924,8.39208237 11.6079176,7.08860759 10,7.08860759 Z M19.1139241,9.11392405 C19.6032903,9.11392405 20,9.51063377 20,10 C20,10.4893662 19.6032903,10.8860759 19.1139241,10.8860759 L16.835443,10.8860759 C16.3460768,10.8860759 15.9493671,10.4893662 15.9493671,10 C15.9493671,9.51063377 16.3460768,9.11392405 16.835443,9.11392405 L19.1139241,9.11392405 Z M3.16455696,9.11392405 C3.6539232,9.11392405 4.05063291,9.51063377 4.05063291,10 C4.05063291,10.4893662 3.6539232,10.8860759 3.16455696,10.8860759 L0.886075949,10.8860759 C0.396709715,10.8860759 0,10.4893662 0,10 C0,9.51063377 0.396709715,9.11392405 0.886075949,9.11392405 L3.16455696,9.11392405 Z M15.8180066,2.92889273 C16.1640408,2.58285854 16.7250731,2.58285854 17.0711073,2.92889273 C17.4171415,3.27492691 17.4171415,3.83595917 17.0711073,4.18199335 L15.459968,5.79313259 C15.1139339,6.13916677 14.5529016,6.13916677 14.2068674,5.79313259 C13.8608332,5.44709841 13.8608332,4.88606615 14.2068674,4.54003197 L15.8180066,2.92889273 Z M2.92889273,2.92889273 C3.27492691,2.58285854 3.83595917,2.58285854 4.18199335,2.92889273 L5.79313259,4.54003197 C6.13916677,4.88606615 6.13916677,5.44709841 5.79313259,5.79313259 C5.44709841,6.13916677 4.88606615,6.13916677 4.54003197,5.79313259 L2.92889273,4.18199335 C2.58285854,3.83595917 2.58285854,3.27492691 2.92889273,2.92889273 Z M10,0 C10.4893662,0 10.8860759,0.396709715 10.8860759,0.886075949 L10.8860759,3.16455696 C10.8860759,3.6539232 10.4893662,4.05063291 10,4.05063291 C9.51063377,4.05063291 9.11392405,3.6539232 9.11392405,3.16455696 L9.11392405,0.886075949 C9.11392405,0.396709715 9.51063377,0 10,0 Z" id="Shape" fill="#000000" fill-rule="nonzero"></path>
    </g>
</svg>