<?xml version="1.0" encoding="UTF-8"?>
<svg width="18px" height="23px" viewBox="0 0 18 23" version="1.1" xmlns="http://www.w3.org/2000/svg" xmlns:xlink="http://www.w3.org/1999/xlink">
    <title>user</title>
    <g id="Page-1" stroke="none" stroke-width="1" fill="none" fill-rule="evenodd">
        <g id="user" transform="translate(0.7498, 0.75)" fill="#000000" fill-rule="nonzero">
            <path d="M8.49930622,10.4904704 C13.1395776,10.4904704 16.922393,14.2119494 16.9984963,18.8518362 C17.0045898,19.2486142 16.7757868,19.6116118 16.4151161,19.7769937 C13.9314653,20.9158468 11.2305868,21.5037078 8.49930622,21.5000675 C5.74557973,21.5000675 3.05815087,20.9129719 0.583116998,19.7768196 C0.222653024,19.6113504 -0.00597493482,19.2484628 0.000118881152,18.8516597 C0.0762194361,14.2119494 3.85903483,10.4904704 8.49930622,10.4904704 Z M8.49711636,12.49 L8.26457644,12.4946508 C5.06964755,12.6086035 2.42353247,15.0393635 2.04571515,18.2106845 L2.04311636,18.228 L2.30854626,18.337705 C3.96831295,18.9872584 5.72032656,19.3695386 7.51221175,19.4719133 L8.00185692,19.4928843 L8.50065391,19.5000638 C10.6165363,19.5028772 12.7134529,19.1091668 14.6794614,18.3414755 L14.9551164,18.228 L14.9532462,18.2137771 C14.5850421,15.1229914 12.0612875,12.726181 8.96832549,12.5069686 L8.72930938,12.4944262 L8.49711636,12.49 Z M8.49930622,0 C11.1226588,0 13.2493062,2.12664744 13.2493062,4.75 C13.2493062,7.37335256 11.1226588,9.5 8.49930622,9.5 C5.87595366,9.5 3.74930622,7.37335256 3.74930622,4.75 C3.74930622,2.12664744 5.87595366,0 8.49930622,0 Z M8.49930622,2 C6.98052316,2 5.74930622,3.23121694 5.74930622,4.75 C5.74930622,6.26878306 6.98052316,7.5 8.49930622,7.5 C10.0180893,7.5 11.2493062,6.26878306 11.2493062,4.75 C11.2493062,3.23121694 10.0180893,2 8.49930622,2 Z" id="Combined-Shape"></path>
        </g>
    </g>
</svg>