<?xml version="1.0" encoding="UTF-8"?>
<svg width="121px" height="143px" viewBox="0 0 121 143" version="1.1" xmlns="http://www.w3.org/2000/svg" xmlns:xlink="http://www.w3.org/1999/xlink">
    <title>favicon</title>
    <g id="Page-1" stroke="none" stroke-width="1" fill="none" fill-rule="evenodd">
        <g id="favicon" transform="translate(0.000000, -0.000000)" fill-rule="nonzero">
            <path d="M118.571906,89.0225352 C116.953177,85.3971831 114.929766,82.1746479 112.501672,79.3549296 C110.073579,76.5352113 106.83612,74.1183099 103.598662,72.5070423 C100.361204,70.4929577 97.1237458,69.284507 93.4816054,68.4788732 L93.4816054,67.6732394 C99.9565217,65.256338 104.812709,61.6309859 108.859532,56.3943662 C112.906355,51.5605634 114.525084,45.115493 114.525084,37.4619718 C114.525084,29.4056338 112.501672,22.5577465 108.859532,17.7239437 C105.217391,12.4873239 100.765886,8.86197183 95.1003344,6.04225352 C89.4347826,3.22253521 83.3645485,1.61126761 76.8896321,0.805633803 C70.819398,0.402816901 64.7491639,0 59.083612,0 L0,0 L0,143 L65.1538462,143 C72.0334448,143 78.9130435,142.194366 85.7926421,140.985915 C92.6722408,139.374648 98.3377926,137.360563 103.598662,133.735211 C108.859532,130.512676 112.906355,126.08169 116.143813,120.84507 C119.381271,115.608451 121,109.16338 121,101.107042 C121,96.6760563 120.190635,92.6478873 118.571906,89.0225352 Z M45.2,85.8 C45.2,85.8 44.8,86.2 44.8,86.2 L45.2,85.8 L45.2,85.8 Z" id="Shape" fill="#102A3E"></path>
            <circle id="Oval" fill="#E3BD6F" cx="56" cy="46" r="12"></circle>
            <circle id="Oval" fill="#E3BD6F" cx="56" cy="96" r="12"></circle>
        </g>
    </g>
</svg>